<?xml version="1.0" encoding="utf-8"?>
<!-- Generator: Adobe Illustrator 16.0.0, SVG Export Plug-In . SVG Version: 6.00 Build 0)  -->
<!DOCTYPE svg PUBLIC "-//W3C//DTD SVG 1.1//EN" "http://www.w3.org/Graphics/SVG/1.1/DTD/svg11.dtd">
<svg version="1.1" id="Layer_1" xmlns="http://www.w3.org/2000/svg" xmlns:xlink="http://www.w3.org/1999/xlink" x="0px" y="0px"
	 width="400px" height="160px" viewBox="0 0 400 160" enable-background="new 0 0 400 160" xml:space="preserve">
<g>
	<path fill="#FFFFFF" d="M162.859,1.53h19.233c5.2,0,9.2,0.409,11.998,1.226c2.797,0.816,4.898,1.996,6.305,3.538
		s2.358,3.409,2.857,5.602c0.499,2.192,0.749,5.587,0.749,10.183v6.396c0,4.688-0.485,8.105-1.451,10.251
		c-0.969,2.148-2.745,3.795-5.331,4.945s-5.965,1.725-10.138,1.725h-5.127V74.97h-19.096V1.53z M181.955,14.096v18.688
		c0.545,0.03,1.014,0.046,1.407,0.046c1.753,0,2.971-0.431,3.651-1.293c0.68-0.861,1.021-2.654,1.021-5.375v-6.033
		c0-2.511-0.394-4.143-1.179-4.899C186.067,14.474,184.436,14.096,181.955,14.096z"/>
	<path fill="#FFFFFF" d="M206.704,1.53h31.843v14.698H225.8v13.926h11.931v13.972H225.8v16.148h14.018V74.97h-33.113V1.53z"/>
	<path fill="#FFFFFF" d="M286.156,44.533c0,7.38-0.175,12.604-0.521,15.673c-0.348,3.069-1.438,5.875-3.267,8.414
		c-1.829,2.541-4.302,4.492-7.416,5.852c-3.115,1.361-6.743,2.041-10.887,2.041c-3.932,0-7.462-0.643-10.592-1.927
		c-3.13-1.286-5.648-3.214-7.553-5.784c-1.905-2.57-3.039-5.368-3.401-8.393c-0.364-3.023-0.545-8.315-0.545-15.876V31.968
		c0-7.378,0.174-12.603,0.521-15.672c0.347-3.069,1.436-5.875,3.266-8.415s4.302-4.491,7.417-5.852
		c3.114-1.361,6.743-2.042,10.887-2.042c3.931,0,7.461,0.643,10.592,1.928c3.13,1.285,5.647,3.212,7.553,5.783
		c1.904,2.57,3.039,5.368,3.402,8.391c0.362,3.024,0.544,8.318,0.544,15.877V44.533z M267.059,20.402
		c0-3.418-0.188-5.603-0.566-6.555c-0.379-0.952-1.156-1.43-2.336-1.43c-0.998,0-1.763,0.386-2.291,1.157
		c-0.529,0.771-0.793,3.047-0.793,6.827v34.293c0,4.264,0.173,6.895,0.521,7.893c0.348,0.997,1.157,1.496,2.427,1.496
		c1.301,0,2.132-0.573,2.496-1.724c0.362-1.148,0.543-3.886,0.543-8.21V20.402z"/>
	<path fill="#FFFFFF" d="M290.491,1.53h19.233c5.2,0,9.2,0.409,11.998,1.226c2.797,0.816,4.898,1.996,6.305,3.538
		s2.358,3.409,2.857,5.602c0.5,2.192,0.749,5.587,0.749,10.183v6.396c0,4.688-0.484,8.105-1.451,10.251
		c-0.969,2.148-2.745,3.795-5.331,4.945c-2.585,1.149-5.965,1.725-10.138,1.725h-5.126V74.97h-19.097V1.53z M309.588,14.096v18.688
		c0.544,0.03,1.013,0.046,1.407,0.046c1.753,0,2.97-0.431,3.65-1.293c0.681-0.861,1.021-2.654,1.021-5.375v-6.033
		c0-2.511-0.393-4.143-1.179-4.899C313.7,14.474,312.067,14.096,309.588,14.096z"/>
	<path fill="#FFFFFF" d="M353.433,1.53v58.744h11.612V74.97h-30.709V1.53H353.433z"/>
	<path fill="#FFFFFF" d="M366.886,1.53h31.844v14.698h-12.747v13.926h11.931v13.972h-11.931v16.148H400V74.97h-33.114V1.53z"/>
	<path fill="#FFFFFF" d="M42.05,107.232H24.314v-5.443c0-2.54-0.228-4.158-0.681-4.854c-0.454-0.695-1.21-1.045-2.269-1.045
		c-1.149,0-2.019,0.471-2.608,1.408c-0.59,0.938-0.885,2.361-0.885,4.268c0,2.45,0.332,4.297,0.996,5.537
		c0.633,1.24,2.431,2.738,5.396,4.49c8.5,5.046,13.854,9.186,16.063,12.422c2.207,3.236,3.312,8.453,3.312,15.65
		c0,5.231-0.612,9.088-1.837,11.567c-1.225,2.479-3.591,4.558-7.1,6.236c-3.508,1.679-7.591,2.519-12.248,2.519
		c-5.111,0-9.473-0.97-13.087-2.904c-3.613-1.934-5.98-4.399-7.098-7.395c-1.12-2.992-1.679-7.242-1.679-12.745v-4.81h17.736v8.937
		c0,2.753,0.25,4.522,0.749,5.309c0.498,0.786,1.383,1.179,2.653,1.179c1.27,0,2.214-0.498,2.835-1.497
		c0.619-0.999,0.929-2.479,0.929-4.444c0-4.326-0.588-7.152-1.768-8.484c-1.21-1.329-4.189-3.552-8.937-6.666
		c-4.749-3.146-7.893-5.429-9.435-6.852c-1.542-1.42-2.82-3.387-3.833-5.896c-1.014-2.51-1.52-5.715-1.52-9.616
		c0-5.624,0.718-9.737,2.155-12.339c1.436-2.6,3.756-4.635,6.963-6.102c3.205-1.467,7.076-2.199,11.613-2.199
		c4.958,0,9.185,0.801,12.679,2.404c3.493,1.603,5.806,3.621,6.94,6.057c1.133,2.434,1.701,6.57,1.701,12.405V107.232z"/>
	<path fill="#FFFFFF" d="M85.305,85.004v14.697H73.964v58.744H54.867V99.701H43.572V85.004H85.305z"/>
	<path fill="#FFFFFF" d="M86.873,85.004h13.518c9.011,0,15.112,0.35,18.304,1.044c3.19,0.697,5.79,2.474,7.802,5.33
		c2.011,2.858,3.017,7.417,3.017,13.677c0,5.715-0.711,9.557-2.132,11.521c-1.422,1.967-4.219,3.146-8.393,3.539
		c3.78,0.938,6.32,2.193,7.622,3.764c1.299,1.573,2.108,3.018,2.427,4.332c0.316,1.316,0.476,4.938,0.476,10.865v19.369h-17.736
		v-24.404c0-3.932-0.311-6.366-0.93-7.303c-0.62-0.938-2.246-1.408-4.877-1.408v33.115H86.873V85.004z M105.97,97.57v16.33
		c2.147,0,3.651-0.295,4.515-0.885c0.861-0.589,1.292-2.502,1.292-5.738v-4.036c0-2.329-0.416-3.857-1.247-4.582
		C109.696,97.932,108.178,97.57,105.97,97.57z"/>
	<path fill="#FFFFFF" d="M167.132,85.004l10.92,73.441h-19.517l-1.024-13.201h-6.832l-1.147,13.201h-19.743l9.741-73.441H167.132z
		 M157.011,132.226c-0.968-8.317-1.937-18.599-2.91-30.845c-1.944,14.063-3.166,24.346-3.665,30.845H157.011z"/>
	<path fill="#FFFFFF" d="M211.849,85.004v14.697h-11.341v58.744h-19.097V99.701h-11.295V85.004H211.849z"/>
	<path fill="#FFFFFF" d="M213.416,85.004h31.844v14.697h-12.747v13.928h11.931V127.6h-11.931v16.148h14.018v14.697h-33.114V85.004z"
		/>
	<path fill="#FFFFFF" d="M293.052,112.04h-19.097v-6.667c0-4.204-0.183-6.836-0.545-7.894c-0.363-1.058-1.225-1.589-2.586-1.589
		c-1.18,0-1.98,0.455-2.403,1.361c-0.425,0.908-0.636,3.236-0.636,6.986v35.246c0,3.297,0.211,5.466,0.636,6.509
		c0.423,1.044,1.269,1.565,2.539,1.565c1.391,0,2.336-0.59,2.836-1.769c0.499-1.18,0.749-3.478,0.749-6.896v-8.711h-3.856v-11.158
		h22.363v39.42h-12.001l-1.767-5.262c-1.301,2.268-2.943,3.969-4.925,5.104c-1.983,1.133-4.32,1.701-7.014,1.701
		c-3.209,0-6.212-0.779-9.011-2.338c-2.801-1.557-4.926-3.483-6.379-5.783c-1.453-2.297-2.361-4.71-2.724-7.234
		c-0.363-2.525-0.544-6.313-0.544-11.363V111.45c0-7.015,0.378-12.11,1.133-15.286c0.756-3.176,2.927-6.086,6.51-8.732
		c3.584-2.646,8.218-3.969,13.903-3.969c5.595,0,10.236,1.149,13.927,3.447c3.688,2.299,6.093,5.029,7.212,8.188
		c1.119,3.16,1.679,7.75,1.679,13.768V112.04z"/>
	<path fill="#FFFFFF" d="M316.754,85.004v73.441h-19.096V85.004H316.754z"/>
	<path fill="#FFFFFF" d="M321.635,85.004h31.843v14.697H340.73v13.928h11.931V127.6H340.73v16.148h14.018v14.697h-33.113V85.004z"/>
	<path fill="#FFFFFF" d="M397.913,107.232h-17.736v-5.443c0-2.54-0.228-4.158-0.681-4.854c-0.454-0.695-1.211-1.045-2.269-1.045
		c-1.149,0-2.019,0.471-2.608,1.408c-0.59,0.938-0.885,2.361-0.885,4.268c0,2.45,0.332,4.297,0.995,5.537
		c0.633,1.24,2.432,2.738,5.396,4.49c8.501,5.046,13.854,9.186,16.063,12.422c2.207,3.236,3.312,8.453,3.312,15.65
		c0,5.231-0.611,9.088-1.837,11.567c-1.225,2.479-3.591,4.558-7.099,6.236c-3.509,1.679-7.591,2.519-12.248,2.519
		c-5.111,0-9.473-0.97-13.087-2.904c-3.613-1.934-5.98-4.399-7.099-7.395c-1.12-2.992-1.679-7.242-1.679-12.745v-4.81h17.736v8.937
		c0,2.753,0.25,4.522,0.749,5.309c0.498,0.786,1.383,1.179,2.653,1.179s2.215-0.498,2.835-1.497c0.619-0.999,0.93-2.479,0.93-4.444
		c0-4.326-0.589-7.152-1.769-8.484c-1.21-1.329-4.188-3.552-8.937-6.666c-4.748-3.146-7.894-5.429-9.436-6.852
		c-1.542-1.42-2.819-3.387-3.833-5.896s-1.52-5.715-1.52-9.616c0-5.624,0.718-9.737,2.155-12.339c1.436-2.6,3.757-4.635,6.963-6.102
		c3.205-1.467,7.076-2.199,11.612-2.199c4.959,0,9.186,0.801,12.679,2.404c3.493,1.603,5.806,3.621,6.94,6.057
		c1.133,2.434,1.701,6.57,1.701,12.405V107.232z"/>
</g>
<g>
	<path fill="#FFFFFF" d="M95.056,17.662c0.153,0.1,0,0.333,0.092,0.466c0.091,0.135,0.153,0.369,0.275,0.503
		c0.123,0.132-0.03,0.166,0.091,0.332c0.123,0.168,0.123,0.201,0.185,0.335c0.062,0.133-0.062,0.532,0.092,0.701
		c0.153,0.166,0.949,0.301,1.225,0.667c0.276,0.368,0.674,0.466,0.582,1.135c-0.016,0.115-0.045,0.231-0.08,0.352
		c0.002,0,0.003,0,0.003-0.002c0,0-0.007,0.021-0.01,0.03c-0.021,0.07-0.042,0.138-0.065,0.205
		c-0.124,0.393-0.363,1.163-0.431,1.384c-0.071,0.233-0.326,0.928-0.451,1.383c-0.061,0.327-0.098,0.584-0.099,0.687
		c0.204-0.528,0.851-2.19,0.978-2.303c0.154-0.135,0.888-0.801,1.224-1.002c0.337-0.199,1.898-1.134,2.082-1.202
		c0,0-0.428-0.534-0.398-0.966c0.03-0.436,0.184-0.367,0.306-0.602c0.123-0.233,0.245-0.366,0.306-0.934
		c0.061-0.568,0.306-0.868,0.428-0.802c0.123,0.067,0.445-0.017,0.445-0.017s-0.889,0-0.077-0.452c0.33-0.181,0.643-0.232,0.826-0.5
		c0.184-0.267,0.521-0.768,0.336-1.602c-0.182-0.834-0.52-0.802-0.765-1.136c0,0,0.152-0.466,0-0.666
		c-0.153-0.201-0.521-0.169-0.643-0.135c-0.123,0.032-0.827-1.636-3.124-1.569c-1.688,0.05-2.507,0.937-2.63,1.269
		c-0.123,0.333-0.153,0.701-0.308,0.936c-0.152,0.232-0.122,0.567-0.152,0.8c-0.03,0.234-0.306,0.769-0.184,1.003
		c0.123,0.232,0.246,0.435,0.184,0.566c-0.062,0.135-0.536,0.653-0.566,0.769C94.658,17.578,94.902,17.56,95.056,17.662z"/>
	<path fill="#FFFFFF" d="M103.014,28.577c-0.598-0.2-0.871,0.052-1.194,0.299c-0.322,0.252-0.78,0.952-0.78,0.952
		c0.114,0.751,0.482,2.002,0.482,2.002c-1.148-0.752-3.26-3.002-3.489-3.304c-0.229-0.301-1.033-1.202-1.287-1.603
		c-0.251-0.4-0.366-1.151-0.457-1.276c-0.093-0.125-0.321-0.376-0.712-0.552c-0.39-0.175-0.368-0.45-0.598-0.45
		c-0.229,0-0.114,0.301-0.114,0.301s0,0-0.184-0.051c-0.183-0.048-0.573-0.176-0.964-0.25c-0.39-0.074-0.509,0.067-0.552,0.25
		c-0.044,0.2,0.3,0.352,0.138,0.428c-0.161,0.074-0.183,0.425-0.183,0.425c-0.368,0.05-0.39,0.375-0.368,0.525
		c0.024,0.15,0.344,0.376,0.23,0.425c-0.115,0.052-0.206,0.226-0.161,0.325c0.045,0.101,0.435,0.35,0.435,0.35
		c-0.534,0.689-0.764,2.149-0.81,2.349c-0.046,0.2-0.171,0.482-0.194,0.883c-0.024,0.401-0.121,1.977-0.189,2.203
		c-0.069,0.226-0.298,1.027-0.092,1.477c0.207,0.451,0.46,1.251,0.482,1.527c0.019,0.229,0.437,0.622,0.578,0.748
		c-0.047,0.109-0.101,0.21-0.149,0.261c-0.122,0.135-0.551,1.036-0.643,1.604c-0.091,0.567-0.306,3.604-0.245,6.674
		s0.827,7.777,0.827,7.777s-0.276,0.869-0.276,1.003c0,0.132-0.398,6.108-0.428,6.709c-0.032,0.599-0.276,8.542-0.612,10.379
		c0,0,0.276,0.167,0.306,0.268c0.03,0.1-0.062,1.469-0.123,1.903c-0.039,0.284-0.329,0.555-0.498,0.831
		c-0.054-0.103-0.121-0.197-0.177-0.227c-0.125-0.071-0.977-0.104-1.323-0.035c-0.346,0.068-1.514-0.826-1.702-0.963
		s-0.44-0.516-0.693-0.858c-0.252-0.345-0.41-0.653-0.377-0.86c0.03-0.206,0.251-1.272,0.377-1.718
		c0.127-0.446-0.126-1.579-0.22-4.948c-0.094-3.367,0.726-8.195,0.726-8.195c0.188-1.159,0.85-4.663,1.016-5.462
		c0.165-0.799,0.354-3.017,0.307-3.404c-0.047-0.385-0.236-1.699-0.142-2.061c0.07-0.269,0.322-0.407,0.467-0.567
		c0.039,0.164,0.085,0.378,0.085,0.378c-0.286,1.788-0.127,1.821-0.032,1.925s0.221-0.447,0.315-0.996
		c0.096-0.55,0.378-1.994,0.472-2.646c0.095-0.654,0.095-1.168,0.285-1.856c-1.04-0.858-1.796-0.343-1.828-0.205
		c-0.014,0.062-0.048,0.132-0.083,0.193c-0.043-0.138-0.076-0.239-0.082-0.271c-0.025-0.11-0.164-0.975-0.286-1.741
		c-0.002-0.002-0.006-0.003-0.006-0.003s-0.111-0.74-0.164-1.083c-0.015-0.093-0.022-0.142-0.016-0.112
		c0.003,0.029,0.009,0.068,0.016,0.112c0.031,0.197,0.097,0.619,0.17,1.086c0.014,0.003,0.083,0.021,0.175,0.046l-0.04-0.255
		c0,0,1.23-0.411,2.05,0.034l0.032,0.577c0.359-0.058,0.66-0.201,0.66-0.337c0-0.205-0.228-2.552-0.275-2.886
		c-0.048-0.337-0.356-1.755-0.331-1.832c0.023-0.075-0.166-0.23-0.307-0.281c-0.141-0.053-0.134-0.534-0.252-0.844
		c-0.119-0.309,0.023-0.813-0.094-1.304c-0.119-0.491-0.482-2.614-0.694-3.437c-0.212-0.825-0.637-2.793-0.662-3.23
		c-0.023-0.438-0.707-1.419-0.685-1.625c0.024-0.205-0.188-0.308-0.283-0.489c-0.094-0.18-0.354-0.206-0.495-0.31
		c-0.144-0.103-2.72-1.982-3.05-2.189c-0.331-0.208-0.686-1.004-0.686-1.004l0.095,0.31c0,0-0.047,1.029,0.142,1.648
		c0.189,0.619,0.142,1.134,0.378,1.907c0.237,0.773,2.601,12.164,2.601,13.297c0,1.136,0,1.136,0,1.136s-1.419-0.309-1.749-0.258
		c-0.331,0.053-0.71,0.104-0.945,0.155c-0.236,0.051-2.884-15.363-2.932-15.825c-0.046-0.465-1.984-2.887-1.843-3.352l0.017-0.037
		c-0.171,0.312-0.437,0.675-0.774,0.76c-0.612,0.156-3.355,1.082-3.733,1.34c-0.378,0.257-1.087,0.617-1.087,0.617
		s-0.316,0.569-0.252,1.032c0.077,0.563-0.078,1.288-0.41,1.804c-0.33,0.516-0.708,1.34-0.897,1.856
		c-0.19,0.517-1.419,3.66-1.655,4.124c-0.236,0.461-0.378,1.132-0.426,1.545c-0.046,0.412-0.094,1.287,0,1.494
		c0.095,0.207,0.899,1.598,1.134,2.165c0.236,0.567,1.465,2.165,1.562,2.578c0.094,0.411,0.377,0.465,0.377,0.465l0.28-0.227
		c0.432-0.395,1.544-1.398,1.857-1.514c0.002-0.029,0.003-0.059,0.007-0.088c-0.199-0.481-1.411-3.413-1.672-3.792
		c-0.282-0.411-0.094-1.236-0.094-1.236s1.182-3.091,1.323-3.299c0.143-0.206,0.784,3.166,1.009,3.436
		c0.598,0.723-0.362,1.752-0.316,2.061c0,0-0.12,1.307-0.25,2.831c0.018,0.042,0.03,0.074,0.03,0.074l0.566,0.98
		c0,0-0.445,0.308-0.73,0.546c-0.009,0.13-0.021,0.256-0.03,0.383c-0.297,0.27-0.539,0.541-0.539,0.541s0.201,0.581,0.416,1.189
		c-0.028,0.476-0.042,0.824-0.03,0.948c0.046,0.47,0.452,0.9,0.944,1.108c0.191,0.317,0.395,0.644,0.49,0.748
		c0.036,0.038,0.063,0.104,0.085,0.184c-0.038,1.172-0.101,3.285-0.101,3.87c0,0.824,0.157,3.264,0.188,3.437
		c0.113,0.607,0.284,1.925,0.157,2.851c-0.125,0.93-0.535,3.094-0.535,4.64c0,1.547,0.063,12.2,0.189,12.475
		c0.126,0.273,0.251,0.481,0.41,0.652c0.157,0.172-0.094,0.756-0.094,1.1s-0.065,0.894-0.065,1.134c0,0.239,0.065,1.099,0.065,1.099
		l0.598,0.036l0.031-0.38c0,0,0.159,0.24,0.567,0.276c0.41,0.035,3.182-0.068,3.276-0.068s0.883-0.138,0.977-0.173
		c0.095-0.035,0.252,0,0.252-0.309s-0.188-0.517-0.316-0.584c-0.125-0.068-0.535-0.241-0.754-0.447
		c-0.222-0.206-0.443-0.344-0.41-0.584c0.031-0.242,0.157-0.137,0.188-0.55c0.033-0.412,0-0.688,0.033-1.099
		c0.03-0.413-0.033-0.654-0.064-0.928c-0.031-0.276-0.346-0.104-0.724-0.447c-0.378-0.344-0.095-1.513,0.063-2.336
		c0.159-0.825,0.661-2.99,0.787-3.919c0.127-0.927,0.157-5.187,0.19-5.84c0.031-0.653,0.346-3.403,0.629-4.64
		c0.285-1.236,1.009-3.47,1.072-3.023c0.063,0.445,0.347,6.357,0.252,7.078c-0.094,0.722,0.283,0.755,0.283,1.238
		c0,0.48-0.188,1.098-0.188,1.511s0.125,0.482-0.031,2.234c-0.157,1.753,0.156,6.255,0.251,7.148
		c0.095,0.893-0.031,0.515-0.063,0.996c-0.032,0.481-0.316,0.55-0.316,0.858c0,0.31,0.031,0.173,0.189,0.378
		c0.158,0.206-0.125,0.241-0.251,0.445c-0.126,0.207-0.095,0.415-0.063,0.759c0.032,0.344-0.094,1.786-0.031,1.993
		c0.063,0.205,2.994,0.272,2.994,0.272s0-0.205,0.063-0.376c0.063-0.173,1.26,0.376,1.449,0.412
		c0.189,0.035,2.772-0.172,2.899-0.241c0.091-0.048,0.484-0.168,0.726-0.271c0,0.003,0,0.006,0,0.008
		c0.092,0.432,0.55,0.534,0.856,0.534s2.51,0.1,2.786,0.065c0.275-0.033,0.152-0.134,0.152-0.134s1.042,0.134,1.133,0.101
		c0.092-0.032,2.755-2.135,3.459-1.802c0.704,0.334,0.245,0.967,0.183,1.336c-0.061,0.365-0.061,0.365-0.061,0.365h1.101
		c0,0-0.122-1.334,0.062-1.868c0.183-0.534,0.214-0.835,0.123-1.136c-0.091-0.299-0.397-1.569-0.49-2.169
		c-0.092-0.6-0.734-5.439-0.673-8.777c0,0-0.336-1.437-0.551-2.805c-0.213-1.369-0.245-1.836-0.337-2.437
		c-0.09-0.602-0.643-1.067-0.643-1.235c0-0.167,0.092-2.002,0.122-2.136c0.032-0.133,2.236-4.505,2.572-5.943
		c0.336-1.434,0.795-2.468,0.795-4.204c0-1.737-0.367-4.039-0.489-4.639c0,0,0.306-1.104,0.245-1.237
		c-0.055-0.117-2.521-1.702-6.36-1.517c-0.665-0.065-1.382-0.108-1.844-0.052c0,0-0.078,0.11-0.15,0.267
		c-0.032-0.093-0.069-0.077-0.179-0.272c-0.137-0.252-0.16-0.804-0.184-1.028c-0.022-0.226,0.391-0.325,0.458-0.426
		c0.07-0.1,0.185-0.137,0.346-0.352c0.161-0.212,0.137-0.648,0.274-1.101c0.073-0.237,0.161-0.6,0.161-0.727
		c0-0.124,0.023-0.148,0.229-0.324c0.207-0.176,0.23-0.525,0.39-0.6c0.161-0.075,1.217-0.527,1.355-0.551
		c0.137-0.025,0.137-0.328,0.137-0.328l0.207,0.101c1.997,3.356,3.673,4.858,3.948,5.083c0.276,0.225,1.147,0.851,1.974,1.352
		c0.827,0.501,1.195-0.927,1.195-0.927c0.596-1.05,0.689-2.803,0.734-3.354c0.044-0.549,0.061-1.486-0.045-1.903
		C103.961,29.211,103.61,28.777,103.014,28.577z M86.051,39.156c-0.173-0.018-1.244,0-1.433,0c-0.19,0-0.269-0.722-0.253-0.79
		c0.016-0.068,1.134-0.171,1.64,0C86.004,38.366,86.223,39.172,86.051,39.156z M95.116,71.501c0.092-0.435,0.397-2.07,0.521-2.737
		c0.122-0.669,0.399-2.804,0.551-3.206c0,0,0,2.071-0.031,2.672c-0.03,0.601,0.031,0.834,0.031,1.201
		c0,0.366,0.031,1.669-0.061,2.07c-0.091,0.399-0.458,0.868-0.826,1.268c-0.367,0.401-0.611,0.343-0.611,0.343
		S95.024,71.935,95.116,71.501z M93.22,34.833c0.26-0.093,0.943-0.015,0.943-0.015s0.059,1.07-0.135,1.144
		c-0.192,0.073-0.782,0.012-0.809,0.008c-0.025-0.006-0.041-0.02-0.062-0.03c-0.071-0.097-0.084-0.229-0.084-0.229
		s0.068-0.4,0.023-0.625c-0.01-0.046-0.019-0.072-0.027-0.098C93.116,34.911,93.168,34.852,93.22,34.833z"/>
	<path fill="#FFFFFF" d="M157.122,18.022c0.169,0.074,0.474,0.185,0.474,0.185s0.085,0.186,0.153,0.278
		c0.068,0.09-0.016,0.274,0.034,0.386c0.052,0.111,0.119,0.129,0.203,0.186c0.085,0.055-0.051,0.073,0,0.258
		c0.051,0.186,0.068,0.186,0.17,0.296c0.101,0.111,0.085,0.351,0.085,0.59c0,0.24,0.083,0.351,0.186,0.351
		c0.101,0,1.27,0.148,1.489,0.186c0.22,0.036,0.069,0.35,0.204,0.459c0.136,0.112,0.576,0.796,0.643,0.869
		c0.069,0.072,1.524-1.532,2.608-2.178c0,0,0.135-0.129,0.202-0.276c0.068-0.147-0.236-0.313-0.186-0.426
		c0.051-0.109,0.034-0.386,0.084-0.498c0.051-0.111,0.136-0.424,0.305-0.737c0.168-0.313,0.304-0.813,0.321-1.053
		c0.018-0.239,0.253-2.788-0.169-3.766c-0.423-0.979-0.779-1.329-1.744-1.921c-0.965-0.588-1.304-0.129-1.286-0.349
		c0.017-0.223-0.018-0.239-0.136-0.277c-0.118-0.036-0.152-0.092-0.202,0.092c-0.052,0.186-0.019,0.37-0.238,0.277
		c-0.22-0.092-0.102-0.165-0.356-0.074c-0.254,0.092-0.287-0.11-0.473,0.167c-0.186,0.276-0.136,0.442-0.253,0.405
		c-0.119-0.037-0.084-0.24-0.339-0.185c-0.254,0.056-0.423,0.111-0.423,0.37c0,0.044,0.004,0.067,0.01,0.085
		c-0.026-0.016-0.086-0.022-0.212,0.024c-0.34,0.13-0.424-0.092-0.525,0.223c-0.103,0.313-0.289,0.332-0.389,0.221
		c-0.101-0.111,0.135,0.628,0.135,0.628c0.068,0.222-0.118,0.519-0.118,0.774c0,0.259,0.118,0.112,0.321,0.075
		c0.204-0.037-0.034,0.11-0.034,0.369s-0.337,1.293-0.304,1.662c0,0,0.169,0.295,0.169,0.48c0,0.184,0.033,0.294-0.169,0.737
		S156.953,17.949,157.122,18.022z"/>
	<path fill="#FFFFFF" d="M161.185,23.153c0.068-0.185-0.372-0.924-0.372-0.924s-0.424,0-0.584,0.148l-0.069,0.051
		c-0.305,0.222-0.329,0.872-0.294,1.203c0.034,0.334-0.169,0.703-0.169,1.108c0,0.407-0.677,2.363-0.779,2.953
		c-0.102,0.592-1.794,9.415-1.658,9.71c0.135,0.295,0.474,1.293,0.711,1.293c0.236,0,1.353-1.108,1.453-1.478
		c0.103-0.369,1.186-9.008,1.355-10.596c0.169-1.587-0.067-2.398,0.035-2.621C160.914,23.781,161.118,23.337,161.185,23.153z"/>
	<path fill="#FFFFFF" d="M171.146,32.07c-0.052-0.583-0.458-3.739-0.636-5.318c-0.177-1.577-1.041-4.235-1.192-4.43
		c-0.152-0.193-0.262-0.165-0.262-0.165c-0.677-0.074-3.487-1.218-3.605-1.238c-0.118-0.018-0.44,0.038-0.44,0.038l-0.018-0.148
		c-0.456-0.13-1.101-1.088-1.101-1.088l0.085,0.128c0.035,0.389-1.15,2.971-1.777,5.114c-0.626,2.141-0.913,4.264-1.387,7.2
		c-0.474,2.934,0.576,6.792,0.457,6.865c-0.12,0.074-0.931,0.093-1.473,0.203c-0.542,0.11-1.762,0.167-2.303,0.148
		c-0.541-0.019-1.15-0.259-1.15-0.259c0.237-0.683,0.982-5.521,1.218-7.051c0.237-1.532,1.085-5.926,1.354-7.145
		c0.271-1.218,0.609-2.012,0.677-2.437c0.068-0.424,0.135-0.885,0.135-0.885c-0.093,0.109-0.744,0.249-1.201,0.469
		c-0.457,0.223-2.158,1.026-2.462,1.218c-0.304,0.195-0.228,0.306-0.228,0.889c0,0.58-0.204,2.907-0.332,3.682
		c-0.126,0.774-0.203,0.941-0.38,1.939c-0.178,0.997-0.076,1.743-0.05,2.409c0.026,0.663-0.128,0.469-0.331,0.829
		c-0.203,0.361-0.05,1.246-0.102,1.883c-0.05,0.637-0.404,0.804-0.277,1.385c0.125,0.583-0.229,0.72-0.254,1.33
		s0.076,2.463-0.025,3.184c-0.104,0.719-0.179,0.552-0.204,0.914c-0.026,0.36,0.025,0.719,0.051,0.941
		c0.024,0.221-0.204,0.388-0.204,0.581c0,0.195-0.026,0.914,0.331,1.22c0.355,0.304,0.533-0.306,0.533-0.306
		s0.127,0.027,0.152,1.439c0.026,1.411,0.127,5.066,0.305,6.921c0.177,1.856,1.244,7.977,1.32,8.916
		c0.077,0.94-0.025,3.683-0.177,4.734c-0.152,1.053-0.559,3.904-0.609,4.099c-0.052,0.193-0.127,0.638-0.052,1.051
		c0.077,0.415,0,0.638-0.152,1.078c-0.153,0.444-0.304,0.501-0.533,0.834c-0.229,0.331-0.534,0.607-0.865,0.635
		c-0.33,0.029-1.167,0.029-1.472,0.139c-0.305,0.11-0.38,0.472-0.483,0.637c-0.102,0.167,0.052,0.361,0.052,0.361h8.15
		c0,0,0.075-1.081,0.075-1.413s-0.203-0.387-0.253-0.719c-0.052-0.334,0.204-0.249,0.178-0.666
		c-0.026-0.414-0.152-0.331-0.052-0.608c0.104-0.277,0.357-0.277,0.305-0.608c-0.051-0.333-0.279-0.501-0.406-0.859
		c-0.128-0.359,0.152-0.498,0.204-0.748c0.049-0.249,0.049-1.91,0.126-2.879c0.076-0.969,0.279-4.375,0.305-5.178
		c0.025-0.802,0.025-3.294,0.05-3.682c0.026-0.388,0.305-1.662,0.33-2.964c0.027-1.3,0.077-3.708,0.127-3.791
		c0.052-0.085,0.025-0.139,0.38,1.521c0.356,1.662,1.093,6.729,1.169,8.473c0.077,1.744,0.634,3.573,0.608,4.346
		c-0.023,0.774-0.786,4.319-0.634,4.846c0.153,0.526,0.864,0.805,1.042,1.08c0.177,0.278-0.229,2.161-0.128,2.603
		c0.103,0.443,0.331,0.526,0.331,0.638s-0.077,0.609-0.077,0.609s3.073,0,3.275,0c0.204,0,0.126-0.306,0.102-0.554
		c-0.025-0.25-0.229-0.499-0.254-0.72c-0.024-0.223,0.052-0.637,0-1.053c-0.05-0.416-0.126-0.581-0.279-1.052
		c-0.152-0.472,0.305,0.055,0.584-0.941c0.279-0.998,0.635-3.296,0.61-4.762c-0.026-1.468-0.38-3.71-0.661-5.011
		c-0.278-1.303-0.33-3.823-0.33-6.011c0-2.187-0.279-6.672-0.279-7.863s0.026-1.3-0.05-1.993c-0.037-0.33,0.003-0.522,0.079-0.671
		c0.126-0.002,0.35,0.048,0.467-0.091c0.139-0.166,0.153-0.346,0.266-0.595c0.114-0.248,0.457-1.3,0.471-1.344
		c0.01-0.034-1.005-0.87-1.41-1.22c-0.094-0.097-0.152-0.156-0.152-0.156l0.076-0.525c0.559,0.11,2.039,1.865,2.039,1.865
		l-0.141,0.346c0.01,0,0.022,0.012,0.031,0.01c0.145-0.047,0.406-1.136,0.685-1.69c0.28-0.552,0.432-1.715,0.813-2.629
		c0.381-0.915,0.66-1.052,0.711-1.356c0.05-0.305,0.05-1.274,0.457-1.995C171.425,34.284,171.197,32.651,171.146,32.07z
		 M159.149,39.749c-0.204,0.054-1.713,0-1.79-0.016c-0.077-0.012-0.039-0.316-0.039-0.316c0.089-0.016,1.816-0.057,1.829,0.013
		C159.161,39.5,159.149,39.749,159.149,39.749z"/>
	<path fill="#FFFFFF" d="M79.48,16.81c0.048,0.233,0.213,0.13,0.285,0.362c0.071,0.231-0.212,0.978-0.212,0.978l2.669,2.629
		c0,0,0.993-1.185,0.993-1.263c0-0.077,0.119-0.283,0.119-0.283c0.496-0.386,1.133-0.103,1.299-0.386
		c0.165-0.284,0.071-0.543,0.119-0.749c0.046-0.206,0.046-0.31,0.165-0.463c0.118-0.154,0.095-0.258,0.095-0.36s0.094,0,0.142-0.231
		c0.047-0.233,0.047-0.853,0.119-0.903c0.07-0.052,0.33-0.078-0.048-0.542c-0.378-0.464-0.165-0.49-0.189-0.67
		c-0.023-0.18,0.212-0.257,0.212-0.489c0-0.23-0.164-0.928-0.164-0.928c-0.26-1.7-1.017-2.191-0.97-2.294
		c0.047-0.103,0.237-0.026,0.237-0.026s-0.52-0.926-1.488-1.16c0,0-0.782-0.051-1.373-0.104c-0.59-0.051-0.922,0.388-1.016,0.259
		c-0.094-0.13-0.048-0.361-0.048-0.361s-0.165,0.645-0.26,0.593c-0.094-0.051-0.448-0.025-0.448-0.025l0.236,0.052
		c-0.425,0.206-1.088,0.903-1.158,1.701c-0.071,0.8-0.071,2.063,0.213,2.654C79.292,15.393,79.434,16.579,79.48,16.81z"/>
	<path fill="#FFFFFF" d="M82.758,21.613c-0.063-0.31-0.289-0.722-0.6-0.654c-0.313,0.068-0.725,0.894-0.725,0.894
		s0.378,0.273,0.347,0.653c-0.032,0.377,1.26,10.79,1.26,10.79s0.19,1.235,0.41,1.443c0.22,0.206,0.946,0.961,1.134,0.927
		c0.19-0.032,0.882-1.065,0.818-1.374c-0.063-0.31-2.269-10.619-2.33-10.859c-0.064-0.24-0.442-1.169-0.41-1.307
		C82.695,21.99,82.821,21.922,82.758,21.613z"/>
	<path fill="#FFFFFF" d="M123.496,26.279c-0.1-0.141-0.268-0.271-0.591-0.462c-0.58-0.339-0.885-0.8-1.784-0.729
		c-0.936,0.073-1.069-0.024-1.871,0.073c-0.289,0.033-0.87,0.072-1.182,0.193c0,0,0.49,0.656,0.668,1.92
		c0,0,0.557,0.364,0.869,0.511c0.151,0.071,0.28,0.118,0.42,0.176c0.011,1.681,0.047,4.612,0.047,4.612s0.052,0.095,0.357,0.12
		c0.042,0.004,0.206-0.018,0.442-0.052c-0.045,0.024-0.09,0.044-0.139,0.075c0,0-1.455,0.618-1.93,0.844
		c-0.474,0.225-0.505,0.129-0.474,0.225c0.029,0.1-0.329-0.096-0.417,0c-0.089,0.1-0.565-0.16-0.683-0.225
		c-0.118-0.065-0.118-0.065-0.118-0.065s-0.061-1.975-0.09-2.202c-0.03-0.227-0.505-1.33-0.505-1.33s1.694-0.484,2.347-0.387
		c0,0,0-2.528-1.129-4.279c0,0-2.051,0.649-2.792,1.069c0,0-0.042,0.009-0.107,0.021c0.008-0.004,0.018-0.006,0.025-0.012
		c0.156-0.122-0.201-1.434-0.289-1.822c-0.089-0.389-0.335-0.584-0.29-0.68c0.044-0.098-0.156-0.486-0.423-0.486
		c0,0-0.356,0.511-0.356,0.875c0,0.363,0.111,1.045,0.401,1.458c0,0,0.333,0.632,0.378,0.729c-0.044-0.003-0.083-0.007-0.111-0.017
		c-0.179-0.066-1.188-3.24-2.674-4.535c-1.843-1.751-2.028-1.182-2.028-1.182s-0.156,0.801-0.49,0.898c0,0-0.847-0.147-1.336,0
		c-0.491,0.146-1.024,0.414-1.427,1.046c-0.4,0.63-0.289,0.897-0.4,1.65c-0.112,0.754,0.023,0.827,0.044,0.9
		s-0.223,0.703-0.088,1.725c0.134,1.019,0.044,1.578,0.333,2.722c0.291,1.143,0.469,2.575,0.691,3.936
		c0.224,1.361,0.424,1.7,0.401,3.353c-0.023,1.653-0.089,2.576-0.089,3.986c0,1.408,0.29,3.766,0.313,4.203l0.394,0.153
		c0,0,0.061,0.357,0.119,0.615c0.059,0.261,0.12,0.584,0.237,1.103c0.12,0.517,0.358,0.583,0.296,2.527
		c-0.057,1.943,0.121,3.37,0.121,3.37s-0.566,0.907-0.566,1.425c0,0.519,0.328,2.235,0.269,2.593
		c-0.06,0.354-0.564,2.755-0.594,3.498c-0.03,0.745,0,4.536,0.061,6.025c0.058,1.491,0,2.561,0.265,3.046
		c0.269,0.486,0.655,0.551,0.595,0.971c-0.06,0.423-0.15,0.326-0.238,0.973c-0.088,0.648,0.238,0.422,0,0.777
		c-0.237,0.356-0.445,0.681-0.268,0.876c0.179,0.193,0.327,0.324,0.208,0.583c-0.117,0.259-0.327,0.454-0.327,0.454l-0.029,0.743
		h2.197L110.1,74.64c0,0,0.416,0.357,0.921,0.357c0.504,0,5.673,0,5.673,0s0.773,0.128,1.604-0.357c0,0,0.089-0.29-0.06-0.389
		c-0.149-0.097-0.327-0.551-0.327-0.551l-0.237,0.032c0,0-0.208-0.388-0.475-0.356c-0.267,0.034-1.901,0.162-2.317-0.259
		c-0.415-0.422-0.088-0.519-0.266-0.582c-0.179-0.065-0.446,0-0.446-0.259c0-0.262-0.061-0.293,0-0.681
		c0.059-0.391-0.149-0.488,0-0.81c0.149-0.326,0.207,0.064,0.327-0.876c0.12-0.939-0.297-3.207-0.327-4.405
		c-0.03-1.199,0.029-3.921,0.149-5.02c0.119-1.104,0.772-2.981,1.365-7.973c0,0,0.536-0.322,0.952-4.956
		c1.365-0.583,2.02-1.943,1.752-4.18c-0.268-2.234-0.119-3.563-0.565-5.799c0,0,1.813-1.133,2.526-1.133
		c0.712,0,0.95,0.031,0.95,0.031s0.943,0.288,1.126-2.528c0.442-0.208,0.92-0.396,1.042-0.452c0.179-0.081,0.223,0,0.387-0.064
		c0.163-0.064,0.193-0.162,0.282-0.227c0.09-0.064,0.193-0.033,0.282-0.196c0.089-0.161,0.416-0.435,0.594-0.646
		c0.179-0.209,0.313-0.276,0.401-0.454c0.008-0.018,0.018-0.029,0.028-0.043c0.829-0.147,1.449-0.257,1.517-0.265
		c0,0,0.156-0.073,0.179-0.364c0.022-0.291,0.312-5.466,0.312-5.466s-0.134-0.099-0.312-0.073
		C127.048,25.708,125.256,25.995,123.496,26.279z M121.584,35.282c-0.387,0.291-0.725,0.329-0.947,0.395
		c-0.457,0.135-0.437,0.039-0.54-0.626c-0.104-0.664,0.579-2.268,0.579-2.268c-0.009,0.25-0.009,0.425-0.006,0.559
		c-0.077,0.829,0.081,1.516,0.081,1.516s0.119,0,0.193-0.049c0.008-0.005,0.022-0.012,0.031-0.019
		c0.15,0.009,0.337-0.04,0.643-0.254c0.42-0.299,0.751-0.473,0.751-0.473C122.265,34.727,121.969,34.992,121.584,35.282z"/>
	<path fill="#FFFFFF" d="M110.939,19.622c-0.022,0.121-0.223,0.584-0.223,0.584v0.132c1.372,0.522,3.208,2.856,3.208,2.856
		s-0.156-0.279-0.144-0.511c0.011-0.231,0.178-0.254,0.178-0.254c0.446,0.036,0.835,0.048,1.059-0.051
		c0.221-0.096,0.378-0.229,0.49-0.437c0.111-0.206,0.345-0.57,0.423-0.582c0.078-0.013,0.19-0.062,0.234-0.11
		c0.045-0.048,0-0.121,0-0.121s0.178-0.025,0.211-0.086c0.034-0.059,0-0.083,0.101-0.17c0.1-0.084,0.323-0.313,0.49-0.581
		c0.167-0.269,0.178-0.521,0.178-0.521c0.134,0.022,0.49,0.035,0.49,0.035c0.313-0.316,0.557-0.656,0.512-0.802
		c-0.045-0.146-0.523-0.304-0.523-0.304l0.044-0.121c0.021-0.147,0.268-0.317,0.357-0.414s0.111-0.268,0.044-0.486
		c-0.068-0.219,0.134-0.389,0.134-0.389c0.089,0.268,0.067,0.485,0.067,0.485c0.313-0.533,0.357-0.922,0.4-2.258
		c0.045-1.338-1.425-2.578-2.004-2.967c-0.579-0.387-0.936-0.022-1.002-0.072c-0.398-0.289,0.69-0.535,0.69-0.535
		c-0.558-0.193-1.024,0.485-1.024,0.485c-0.757-1.164-2.139-0.217-2.139-0.217c-1.782,0.681-2.517,2.939-2.517,4.131
		c0,1.19,0.043,2.431,0.043,2.431c0.201,0.509-0.378,0.703-0.378,0.703C110.561,19.769,110.962,19.5,110.939,19.622z M117.6,18.772
		c0.164,0.049,0.477,0.21,0.461,0.29c-0.015,0.083-0.356,0.6-0.461,0.616c-0.104,0.016-0.311-0.031-0.311-0.031
		C117.244,18.917,117.523,18.748,117.6,18.772z"/>
	<path fill="#FFFFFF" d="M34.925,34.626c0.233,0.128,0.466,0.285,0.641,0.097c0.174-0.192,0.379-0.352,0.524-0.479
		c0.146-0.126,1.165-0.951,1.689-1.903c0.524-0.954,2.709-4.45,3.117-5.878s0.466-2.097,0.437-2.319c0,0-0.007-0.025-0.019-0.059
		c0.419,0.609,0.726,1.131,0.726,1.131l0.328-0.31c-0.022,0.405,0.205,1.545,0.219,1.286c0.014-0.302,0.021-1.881,0.021-1.881
		s0.218,0.355,0.394,1.285c0.175,0.931,0.809,2.358,0.809,2.289c0-0.071,0.065-0.311,0.065-0.381c0-0.072,0.393,0.5,0.305,0.31
		c-0.088-0.192-0.677-1.191-0.961-1.979c-0.284-0.785-0.327-2.216-0.327-2.216c2.555,3.574,1.397,4.67,1.463,4.694
		c0.064,0.021,0.283-0.429,0.283-0.429c0.11,0.548,0.066,1.144,0.066,1.144c0.196-0.334,0.328-0.978,0.11-2.001
		c-0.22-1.026-0.7-1.836-0.917-2.385c-0.22-0.547-0.242-1.023-0.438-1.238c-0.196-0.213-0.022-0.309-0.022-0.309
		c0.029-0.129,0.961,1.523-0.153-0.445c-0.216-0.384-0.203-1.096-0.247-1.24c-0.044-0.142,0.145-0.111,0.145-0.111
		c0.292-0.015,0.438-0.062,0.553-0.173c0.118-0.112,0.103-0.271,0.074-0.509c-0.029-0.238,0.13-0.461,0.204-0.54
		s0.116-0.253,0.116-0.349c0-0.097,0.117-0.382,0.117-0.382c0.233-0.571,0.262-0.794,0.262-1.145c0-0.348-0.116-0.571-0.116-0.729
		s0.087-0.444,0.087-0.444c0.059-0.35-0.028-0.764-0.028-0.764c-0.117-0.316-0.059-0.923-0.059-0.923
		c0.059-0.411-0.058-0.76-0.058-0.76c-0.409-0.701-1.603-1.398-1.603-1.398c-2.126-0.922-3.35,0.063-4.078,1.271
		c-0.729,1.206-0.613,2.509-0.699,3.112c-0.088,0.604-0.495,2.257-0.379,2.986c0.116,0.731,0.116,0.762,0.116,0.762
		c0.285-0.229,0.416,0.158,0.569,0.612c0.08,0.239,0.088,0.919,0.077,1.506c-0.311-0.299-0.454-0.313-0.646-0.209
		c0,0-0.261,0.013-0.195,0.133c0.065,0.118,0.262,0.179,0.339,0.44c0.075,0.262,0.086,0.403,0.195,0.524
		c0.109,0.118,0.241,0.344,0.241,0.691c0,0.025,0.005,0.057,0.006,0.085c-0.031,1.022,0.029,1.876,0.129,2.546
		c-0.165,0.366-0.636,1.235-1.392,2.122c-0.852,1.001-1.395,1.076-1.916,1.936c-0.205,0.34-0.233,0.891-0.408,1.145
		c-0.175,0.254-0.408,0.636-0.393,0.715C34.313,33.642,34.691,34.499,34.925,34.626z M40.5,23.01c0,0-0.004-0.006-0.008-0.014
		c0.008,0.009,0.014,0.018,0.02,0.023C40.506,23.018,40.503,23.016,40.5,23.01z"/>
	<path fill="#FFFFFF" d="M46.562,44.276c-0.021-0.524,0.117-1.024,0-2.098c-0.117-1.07-0.372-1.357-0.502-2.047
		s-0.349-2.24-0.349-2.24c-0.11-0.5-0.038-1.009-0.038-1.009c-0.209-0.224-0.738-0.159-0.738-0.159l-0.15,0.017
		c0.007,0.048,0.018,0.095,0.027,0.144c-0.031-0.114-0.063-0.229-0.1-0.318l-0.102-0.176c0,0-0.626,0.017-0.772-0.047
		c-0.146-0.063-0.408-0.189-0.612-0.255c-0.204-0.063-2.679-1.048-6.161-1.255c-0.333-0.02-0.276,0.271-0.423,0.461
		c-0.145,0.19-0.231,0.38-0.231,0.637c0,0.253,0.204,0.381-0.03,0.729c-0.232,0.351-0.901,2.13-0.901,4.796
		c0,2.67-0.088,7.436-0.146,8.262c0,0-0.059,0.446,0.174,0.604c0,0,0.418,0.299,1.248,0.255c0.249,0.886,0.663,2.669,0.821,5.177
		c0.039,0.611-0.903,2.064-1.486,4.13c-0.583,2.064-0.466,4.861-0.35,6.322c0.117,1.461,0.263,2.031,0.059,2.667
		c-0.204,0.635-0.349,1.62-0.466,1.812c-0.028,0.044-0.094,0.136-0.175,0.261c-0.269,0.4-0.71,1.133-0.554,1.644
		c0.204,0.667,0.641,1.367,0.554,2.319l0.321,0.097c0,0,0.057-0.383,0.261-0.352c0.205,0.032,0.612,0.222,0.933,0.319
		c0.319,0.096,2.272,0,2.272,0s0.64-0.445,0.669-0.637c0.029-0.189-0.378-0.476-0.611-0.698c-0.092-0.087-0.223-0.179-0.361-0.297
		c-0.211-0.18-0.437-0.416-0.542-0.783c-0.175-0.604-0.554-2.287-0.524-4.065c0.029-1.781,1.106-4.988,1.311-6.005
		c0.203-1.017,0.379-2.477,0.524-2.763c0.146-0.286,0.495-1.239,0.612-1.366c0.117-0.127,0.204,0.19,0.117,0.539
		c-0.088,0.35-0.467,2.922-0.438,4.163c0.029,1.238-0.029,4.447-0.059,5.433c-0.029,0.982-0.116,1.714-0.35,2.096
		c-0.063,0.104-0.144,0.249-0.223,0.417c-0.208,0.446-0.404,1.059-0.213,1.521c0.263,0.635,0.787,1.302,0.904,2.191l0.466,0.063
		c0,0,0-0.316,0.088-0.285c0.086,0.032,0.086,0.285,0.494,0.318c0.409,0.031,2.01-0.033,2.098,0c0.088,0.031,0.292-0.128,0.321-0.35
		c0.027-0.205-0.706-0.756-0.985-1.188c-0.024-0.039-0.046-0.078-0.063-0.114c-0.204-0.444-0.757-1.239-0.728-2.351
		c0.029-1.112,0.088-2.158,0.728-5.526c0.64-3.366,0.933-4.067,0.816-6.798c0,0,0.117-0.7,0.233-1.239
		c0.117-0.541-0.059-0.985,0.117-1.461c0.156-0.427,0.851-3.124,1.098-4.205c0.263,0.049,0.978,0.153,1.377-0.053
		c0,0-0.029-0.445-0.087-1.874c-0.019-0.451-0.02-1.223-0.021-2.117c0.397-0.215,0.579-0.331,0.676-0.471
		c0.13-0.191,0.154-0.524,0.109-0.715c-0.042-0.191,0-0.502,0.045-0.572c0.043-0.072,0.151-0.262,0.108-0.43
		C46.605,45.182,46.583,44.801,46.562,44.276z"/>
	<path fill="#FFFFFF" d="M46.117,32.212l3.166,0.074c0,0,0.491-0.122,0.579-0.05c0.165,0.219,0.461,0.382,0.521,0.705
		c0.061,0.323-0.03,0.52,0.088,0.746c0.12,0.227,0.299,0.874,0.893,0.939c0.595,0.063,1.01-0.162,1.307-0.552
		c0.297-0.388,1.011-1.037,1.218-1.231c0.047-0.044,0.127-0.118,0.22-0.203l0.048,0.737c0,0,1.234,0.761,1.397,0.714
		c0.163-0.049,1.217-0.827,1.292-0.907c0.075-0.082-0.012-1.083,0.002-1.132c0-0.001-0.005-0.002-0.007-0.003
		c0.543-0.021,0.889-0.032,0.889-0.032s0.715-0.34,0.872-0.485c0.154-0.146,0.132-0.537,0.132-0.949
		c0-0.411,0.021-7.464,0.021-7.464s-0.088-0.339-0.422-0.388c-0.096-0.015-1.143,0.006-2.583,0.042
		c-0.004-0.017-0.138-0.518-0.195-0.819c-0.06-0.309-0.06-0.537,0.015-0.618c0.074-0.08,0.251-0.468,0.251-0.468
		s-0.063-0.139-0.193-0.409c0.155-0.199,0.303-0.448,0.342-0.514c0.059-0.098-0.119-0.29-0.059-1.329c0,0,0.059-0.455,0.059-0.744
		c0-0.294-0.059-0.552,0.059-0.714c0.12-0.162,0.15-0.325,0.358-0.616c0.207-0.293,0.335-1.319,0.236-1.459
		c-0.148-0.211-0.296,0.031-0.296-0.098s0.089-2.204-0.06-2.464s-1.248-1.554-1.605-1.716c-0.355-0.163-0.951-0.129-0.951-0.129
		c-0.832,0.095-1.545,0.323-1.752,0.679c-0.209,0.356-0.805,0.842-0.893,1.102c-0.089,0.26-0.267,1.655,0,2.432l0.06,0.356
		c-0.12,0.031-0.178-0.194-0.327-0.032c-0.16,0.175,0,0.974,0.089,1.231c0.088,0.26,0.415,0.648,0.593,0.747
		c0.179,0.097,0.179,0.258,0.209,0.453c0.029,0.194,0.088,1.005,0.565,1.943c0,0,0.059,0.228,0.059,0.357
		c0,0.129,1.694,1.07,1.992,1.394c0,0,0.075,0.007,0.17,0.016c0.033,0.041,0.072,0.087,0.082,0.161
		c0.015,0.113-0.312,0.729-0.372,0.825c-0.057,0.096-0.042,0.455-0.041,0.474c-3.515,0.096-7.961,0.231-7.961,0.231
		c-0.312,0.122-0.245,0.414-0.245,0.414l0.156,7.95c0,0-0.089,0.268-0.178,0.39c-0.089,0.12-0.134,0.242-0.045,0.339
		C45.962,32.237,46.117,32.212,46.117,32.212z"/>
	<path fill="#FFFFFF" d="M64.323,72.972c-0.149-0.325-0.358-0.649-0.358-0.746c0-0.099,0.06-1.232-0.029-1.491
		c-0.088-0.261-0.535-0.681-0.683-1.266c-0.148-0.584,0.445-4.698,0.326-5.12c-0.119-0.422-0.891-4.344-0.95-6.806
		c-0.062-2.465,0-8.881,0.088-10.826c0.089-1.946,0.119-5.512-0.653-7.358c-0.773-1.848-1.189-2.27-1.249-2.626
		c-0.06-0.356-0.209-0.939-0.209-0.939l-0.037-0.032l-0.006-0.05l-0.401-0.308c0,0-0.118,0.008-0.311,0.02
		c-0.685,0.045-2.404,0.149-3.911,0.175c-0.814,0.015-1.731,0.007-2.554-0.016c-1.09-0.063-2.146-0.139-2.32-0.139l-0.647,0.657
		c0,0-0.661,0.601-0.6,1.118c0.058,0.52-0.298,1.006-0.655,1.944c-0.357,0.94-0.416,3.859-0.416,5.446
		c0.149,0.648,0.297,0.876,0.266,2.01c0,0,0.091,3.761,0.388,5.768c0.296,2.011,0.445,3.049,0.445,3.503
		c0,0.452,0,1.393,0.088,1.521c0.091,0.131,0.149,0.325,0.061,0.81c-0.089,0.485-0.061,1.104-0.089,2.238
		c-0.03,1.133-0.088,2.754,0,4.472c0.089,1.718,0.297,3.175,0.416,4.085c0,0,0.237,0.485,0.268,0.81
		c0.03,0.323-0.506,0.745-0.743,1.361c-0.238,0.615-0.149,1.198-0.089,1.296c0.061,0.098-0.269,0.715-0.594,0.747
		c-0.328,0.032-1.1,0.032-1.337,0.322c-0.238,0.293-0.238,0.487-0.238,0.487s-0.416,0.128-0.178,0.356
		c0.236,0.226,1.041,0.519,1.307,0.519c0.268,0,4.964,0,4.964,0l0.357-0.065l-0.03-1.004c0,0-0.12-0.097-0.088-0.519
		c0.029-0.422,0.415-0.811,0.446-1.394c0.029-0.585,0.088-1.525-0.06-2.043c-0.149-0.516-0.595-1.879-0.327-3.207
		c0.267-1.329,0.712-3.469,0.682-5.316c-0.03-1.846,0-3.338,0.091-5.25c0.088-1.911,0.743-9.042,1.217-10.243
		c0,0,0.239-0.063,0.357,1.265c0.118,1.328,0.565,4.505,0.685,4.926c0.119,0.422,0.534,1.59,0.623,2.723
		c0.09,1.135,0.594,4.635,0.744,5.867c0.148,1.232,0.296,3.922,0.296,4.893c0,0.973,0.327,4.053,0.475,4.829
		c0.149,0.78,0.445,1.103,0.445,1.59c0,0.485-0.029,0.485,0.208,0.776c0.238,0.293,0.594,0.551,0.594,0.745
		s-0.178,0.648-0.119,0.875c0.061,0.228,0.061,0.615,0.061,0.615s2.942,0.034,3.596,0.034c0.654,0,1.457,0,0.862-1.395
		C64.798,73.619,64.471,73.294,64.323,72.972z"/>
	<path fill="#FFFFFF" d="M20.175,43.014c-0.023-0.103-0.165-0.154-0.165-0.154s-0.071,0.231-0.33,0.076
		c-0.259-0.153-6.099-1.335-11.396-1.205c0,0-0.188,1.129-0.282,1.898c-0.094,0.771-0.165,2.287-0.094,2.953
		c0.07,0.667-0.166,2.029-0.188,2.8c-0.023,0.771-0.149,1.127-0.094,1.181c0.264,0.264,1.742,0.821,1.93,0.898
		c0.006,0.003,0.02,0.006,0.04,0.011c0.17,0.693,0.389,1.53,0.501,1.967c0.21,0.821,0.353,2.876,0.4,3.724
		c0.046,0.847-0.094,3.39,0.072,4.621c0.163,1.233,0.515,2.928,0.94,4.622c0.423,1.696,0.918,3.057,1.037,3.774
		c0.117,0.721,0.117,1.31-0.048,1.951c-0.165,0.643-0.423,1.466-0.589,1.927c-0.165,0.462-0.353,0.462-0.282,0.591
		s-0.26,0.41,1.177,0.358l1.366-0.178l0.094-0.282c0,0,0.024,0.23,0.165,0.255c0.142,0.027,0.26,0.027,0.26,0.027
		s-0.165-1.002-0.047-1.259c0.118-0.257,0.189-0.642,0.212-0.873c0.023-0.231-0.589-1.284-0.66-2.081
		c-0.07-0.797,0-5.416-0.142-7.549c-0.14-2.131-0.471-4.16-0.423-4.699c0.048-0.54,0.519-1.771,0.423-2.387
		c-0.094-0.616-0.258-3.568-0.235-3.878c0.001-0.01,0.001-0.022,0.001-0.033c0.255,0.024,0.512,0.048,0.769,0.068
		c0.01,0.187,0.02,0.371,0.031,0.528c0.046,0.669,0.212,3.237,0.448,4.237c0.235,1.002,0.258,1.104,0.306,1.67
		c0.046,0.565,0.023,2.08,0.046,3.082c0.024,1.001,0.164,3.157,0.283,4.673c0.118,1.515,0.331,2.978,0.26,3.39
		c-0.07,0.41-0.165,0.334-0.2,0.693c-0.016,0.18,0.011,0.152,0.034,0.488c0.024,0.333-0.07,0.384-0.07,0.718
		c0,0.333-0.023,0.642,0,0.847c0.024,0.206-0.023,1.131-0.282,1.464c-0.26,0.333-0.024,0.282,0.046,0.463
		c0.071,0.178-0.046,0.204,0,0.385c0.047,0.179,0.331,0.103,0.331,0.103h1.789c0,0,0.212-0.103,0.188-0.181
		c-0.023-0.077-0.188-0.513-0.164-0.642c0.024-0.128,0-0.616,0-1.001s-0.282-1.311-0.282-1.465c0-0.152,0.212-0.357,0.212-0.539
		c0-0.179-0.095-1.026-0.024-1.643c0.07-0.616,1.271-4.312,1.2-7.498c-0.07-3.183-0.495-4.928-0.423-6.006
		c0.07-1.078,0.353-2.104,0.4-2.337c0.029-0.146,0.199-0.932,0.322-1.495c0.39-0.077,0.725-0.184,0.973-0.328l0.142-0.052
		c0,0,0.047-3.492,0.165-4.262c0.118-0.77,0.118-2.261-0.283-4.108C20.033,43.321,20.199,43.116,20.175,43.014z"/>
	<path fill="#FFFFFF" d="M15.489,35.99c-0.177-0.115-3.613-0.873-4.875-0.886c0,0-0.023,0.296-0.094,0.385
		c-0.07,0.09-0.407,0.404-0.407,0.404s0.478-0.061,0.69-0.036c0.212,0.027,1.318,0.197,1.318,0.197s3.015,0.899,3.521,0.796
		l0.283-0.218C15.926,36.632,15.666,36.106,15.489,35.99z"/>
	<path fill="#FFFFFF" d="M15.854,36.916c1.942-0.103,3.048,0.603,3.025,0.564c-0.023-0.038,0.071-0.476,0.036-0.502
		c-0.036-0.024-0.519-0.243-1.011-0.243C17.409,36.735,15.854,36.916,15.854,36.916z"/>
	<path fill="#FFFFFF" d="M10.475,18.448c0.051,0.185,0.204,0.369,0.298,0.549c0.095,0.179,0.064,0.62,0.079,0.907
		c0.031,0.617,0.282,0.529,0.471,1.061c0.083,0.238,0.259,0.403,0.683,0.76c0.423,0.361,0.471,0.491,0.494,0.617
		c0.023,0.129,0,1.849,0.071,2.055c0.07,0.207,0.201,0.304,0.354,0.515c0.352,0.487,0.706,0.642,0.848,0.666
		c0.141,0.027,1.247-1,1.318-1.052c0.071-0.051,0.519-0.617,0.565-0.795c0.047-0.182,0.024-0.797-0.071-1.286
		c0,0-0.107-0.366-0.036-0.443c0.071-0.075,0.65,0.136,0.65,0.136s0.941,0.488,1.012,0.515c0.071,0.024,0.212,0.229,0.212,0.229
		s-0.235-0.358-0.26-0.513c0,0,0.235,0.103,0.401,0.129c0.165,0.025-0.212-0.281-0.354-0.669c-0.141-0.384-0.612-0.924-0.589-1.027
		c0.023-0.103,0.566,0.541,0.637,0.514c0,0-0.424-0.539-0.543-0.794c-0.117-0.258,0.283,0.126,0.283,0.126s-0.361-0.512-0.573-0.642
		c-0.212-0.127-0.188-0.436-0.117-0.691c0.071-0.257,0.094-0.438,0.023-0.669c-0.07-0.231-0.212-0.744-0.235-1.078
		c-0.024-0.334-0.754-2.542-3.297-2.799c-0.704-0.072-1.765,0.615-1.977,1.154c-0.211,0.539-0.447,1.311-0.33,1.696
		C10.609,18.003,10.424,18.264,10.475,18.448z"/>
	<path fill="#FFFFFF" d="M10.083,31.588c-0.088,0.005-0.169,0.021-0.243,0.049c-0.142,0.052-0.377,0.129-0.495,0.206
		c-0.117,0.077,0,0.333-0.023,0.462c-0.023,0.129-0.188,0.129-0.212,0.283c-0.023,0.154,0.189,0.513,0.189,0.513
		c-0.212,0.565-0.212,1.077-0.164,1.514c0.046,0.438,0.447,0.721,0.447,0.721s0.377,0.026,0.541-0.129
		c0.165-0.154,0.142-0.154,0.282-0.385s0.069-0.282,0.235-0.412c0.165-0.126,0.136-0.215,0.388-0.294
		c0.166-0.052,0.094-0.024,0.331-0.127c0.235-0.104,0.177-0.092,0.271-0.245c0.094-0.155,0.188-0.074,0.4-0.103
		c0.084-0.012,0.145-0.118,0.142-0.192c-0.004-0.09-0.066-0.163-0.083-0.238c0.57,0.186,1.322,0.388,1.903,0.388
		c0.077,0,0.149-0.01,0.223-0.016c-0.017,0.126,0.023,0.233,0.079,0.283c0.15,0.129,0.185,0.074,0.31,0.074
		c0,0-0.143,0.124-0.167,0.259c-0.03,0.168-0.036,0.187,0.089,0.272c0.067,0.047-0.187,0.003-0.23,0.093
		c-0.037,0.078,0.027,0.266,0.167,0.352c0.142,0.085,0.298,0.154,0.424,0.188c0.125,0.035,0.329,0.035,0.376,0.103
		c0.046,0.069,0.142,0.291,0.22,0.36c0.078,0.068,0.156,0.188,0.281,0.238c0.127,0.052,0.204,0.138,0.331,0.138
		c0.125,0,0.377-0.017,0.377-0.017s0.313-0.429,0.11-1.489c0,0,0.173-1.217-0.032-1.369c-0.126-0.094-0.21-0.229-0.425-0.355
		c0.076-0.061,0.15-0.119,0.22-0.175c0.566-0.445,1.729-1.78,1.729-1.78s0.188-4.486,0.156-5.547l-0.658-0.206
		c0,0-0.502-1.199-0.723-1.336s-1.288,1.781-4.175,2.637c-2.89,0.856-3.799,0.515-3.799,0.515l0.032,0.376l-0.849,0.032
		C8.057,27.229,9.232,30.274,10.083,31.588z M10.369,32.087c0,0,0.042-0.002,0.105-0.002l0.052,0.054
		C10.43,32.109,10.369,32.087,10.369,32.087z"/>
	<path fill="#FFFFFF" d="M144.111,34.841c-0.468-1.885-0.526-5.621-0.526-7.123c0-1.501-0.85-6.038-1.962-8.112
		c-1.114-2.076-2.783-2.523-4.802-1.629c0,0-0.851-0.031-0.967-0.353c-0.118-0.317-0.235-0.382-0.235-0.382s-0.276,0.304-0.667,1.05
		c-0.013-0.336-0.125-1.051-0.738-2.167c-0.877-1.597-1.434-2.013-2.782-2.65c0,0-0.702-0.032-1.406-0.224
		c-0.941-0.257-2.606,0.415-3.281,2.14c-0.673,1.726-0.673,2.587-0.468,3.258c0.206,0.671,0.324,1.184,0.675,1.437
		c0.343,0.251,0.768,0.287,0.786,0.288l0,0c-0.038-0.012-1.022-0.334-1.022-1.086c0,0,0.205,0.16,0.353,0.288
		c0.146,0.127,0.205,0.352,0.352,0.415c0.146,0.063,0.263-0.063,0.292,0.159c0.008,0.06,0.016,0.139,0.026,0.224
		c0.001,0,0.003,0,0.003,0s-0.002,0-0.003,0c0.027,0.231,0.065,0.545,0.15,0.894c0.015,0.224,0.074,0.495,0.191,0.527
		c0.176,0,0.308-0.145,0.395-0.079c0.086,0.063,0.281,0.336,0.346,0.469c-0.136-0.017-0.384-0.092-0.493,0.072
		c-0.145,0.223-0.526,0.831-0.644,1.119c-0.117,0.288-0.234,0.414-0.205,0.669c0,0-0.058,0.288,0.058,0.448
		c0.118,0.159,0.03,0.413,0.147,0.575c0.117,0.158,0.38,0.639,0.469,0.86c0.077,0.195,0.05,0.672,0.135,1.025
		c-0.254,0.377-0.43,1.2-0.457,1.785c-0.029,0.641,0.234,1.376,0.087,2.396c-0.146,1.022,0.03,1.086,0.323,2.236
		c0.291,1.149,0.379,1.82,0.585,2.013c0.205,0.191,0.41,0.511,0.673,0.542c0.264,0.032,0.733,0,0.879,0.096
		c0.146,0.097,0.205,4.121,0.381,5.399c0.176,1.277,0.028,4.344,0.176,4.757c0.146,0.417,0.468,0.289,0.644,0.257
		s0.585,4.313,0.732,6.612c0.146,2.299,0.703,6.547,1.142,9.038c0.441,2.492,0.645,2.97,0.732,3.864
		c0.088,0.896,0.263,1.821,0.353,2.044c0.087,0.225,0.497,0.928,0.557,1.311c0.058,0.383-0.234,1.533-0.118,1.692
		c0.118,0.161,0.703,0.32,0.849,0.351c0.146,0.032,0.117,0.544-0.41,0.927c-0.526,0.383-1.289,1.212-3.514,1.311
		c0,0-0.499-0.033-0.557,0.414c-0.059,0.446-0.176,0.415-0.059,0.446c0.117,0.032,0.908,0.703,4.129,0.544
		c0,0,1.231-0.256,1.612-0.225c0.379,0.033,0.526,0.192,1.053,0.192c0.526,0,2.197,0.095,2.46-0.096
		c0.264-0.192,0.118-0.894,0.118-1.118c0-0.223-0.001-1.117-0.029-1.438c0,0,0.263,0.033,0.615,0.64
		c0.351,0.606,0.175,0.51,0.058,0.862c-0.117,0.35-0.234,0.638-0.147,0.83c0.089,0.191,0.147,0.319,0.147,0.319s3.749,0,3.866,0
		c0,0,0.058-1.471,0.029-2.3c-0.029-0.83-0.352-6.517-0.323-7.602c0.029-1.084,0.264-2.81-0.615-6.1c0,0-0.234-1.086-0.234-1.403
		c0-0.321-1.258-1.663-1.288-2.173c-0.029-0.512,0.206-1.15,0.059-1.471c-0.146-0.318-0.234-0.605-0.265-0.989
		c-0.028-0.383-0.058-1.532-0.058-1.947c0-0.415,0.089-3.803,0.089-4.312c0-0.513,0.087-3.45,0.175-3.706
		c0.088-0.255,2.489-0.958,2.607-1.309c0.116-0.352-0.205-0.734-0.205-1.342C145.137,39.697,144.581,36.726,144.111,34.841z
		 M132.595,25.452c-0.016,0.2-0.068,0.58-0.139,1.067c0.071-1.733-0.072-2.98-0.043-3.505
		C132.453,24.016,132.657,24.695,132.595,25.452z M129.167,29.189c-0.637,0.335-1.12,0.551-1.12,0.551l-0.153-0.526
		c0,0,1.56-0.576,2.196-1.799l0.022,0.721C130.112,28.136,129.805,28.854,129.167,29.189z M130.26,25.259
		c-0.206,0.352-0.206,1.438-0.235,1.662c-0.004,0.038-0.06,0.047-0.133,0.045c0.005-0.284,0.003-0.671,0.045-0.877
		c0.058-0.285,0.235-0.988,0.177-1.371c-0.061-0.384,0.058-0.736-0.089-0.863c-0.147-0.129-0.176-0.256-0.176-0.383
		c0-0.128,0-0.128-0.087-0.257c-0.014-0.02-0.02-0.036-0.028-0.052c0.168,0.111,0.365,0.183,0.526,0.086
		c0.263-0.16,1.171-0.702,1.405-0.958c0.235-0.257,0.527,0.191,0.674,0.383c0.019,0.023,0.028,0.036,0.042,0.055
		C131.968,23.201,130.437,24.957,130.26,25.259z M132.582,36.46c-0.119-1.108-0.249-2.938-0.334-4.279
		c0.335,1.938,0.969,4.864,0.969,4.864S132.928,36.796,132.582,36.46z M133.106,24.398c-0.017-0.388-0.049-0.878,0.038-1.03
		c0.109-0.192,0.286-0.959,0.154-1.176c-0.063-0.102-0.231-0.255-0.391-0.385c0.049-0.103,0.104-0.207,0.165-0.315
		c0.41-0.734,1.229-2.427,1.551-2.713c0,0-0.263-0.16-0.146-0.862c0,0,0.177-0.226,0.293,0.063c0.063,0.156,0.108,0.3,0.137,0.399
		C134.371,19.43,133.643,21.313,133.106,24.398z"/>
</g>
</svg>
